<svg xmlns="http://www.w3.org/2000/svg" width="753" height="763" viewBox="0 0 753 763" preserveAspectRatio="xMidYMid meet" role="img" aria-label="Kent Island Village two-bedroom townhome upper-level floor plan">
<defs><style>
    .fp{fill:#FFFFFF}
    .w{fill:none;stroke:#2C3E2D;stroke-width:7;stroke-linecap:butt}
    .wo{fill:none;stroke:#2C3E2D;stroke-width:10;stroke-linecap:butt}
    .d{fill:none;stroke:#7C9880;stroke-width:2.5;stroke-dasharray:5 6}
    .arc{fill:none;stroke:#5E7D63;stroke-width:3}
    .win{fill:none;stroke:#2C3E2D;stroke-width:2.5}
    .st{fill:none;stroke:#2C3E2D;stroke-width:2.5}
    .rm{fill:#22331F;font-family:'Helvetica Neue',Arial,sans-serif;font-size:25px;font-style:italic;text-anchor:middle}
    .cl{fill:#4A5C4D;font-family:'Helvetica Neue',Arial,sans-serif;font-size:18px;font-style:italic;text-anchor:middle}
    .sm{fill:#4A5C4D;font-family:'Helvetica Neue',Arial,sans-serif;font-size:14px;font-style:italic;text-anchor:middle}
  </style></defs>
<rect class="fp" x="26" y="12" width="695" height="722"/>
<path class="w" d="M293,108 V267 M421,49 V122 M421,136 V255 M570,390 V571 M570,582 V628 M304,125 H421 M294,253 H312 M404,253 H485 M502,253 H599 M27,375 H436 M570,598 H595 M602,598 H728"/>
<path class="arc" d="M697,253 V155 M599,253 A98,98 0 0 1 697,155"/>
<path class="arc" d="M293,351 H219 M293,277 A74,74 0 0 0 219,351"/>
<path class="arc" d="M526,375 V463 M438,375 A88,88 0 0 0 526,463"/>
<path class="d" d="M289,18 V37 M297,18 V37 M289,46 V110 M297,46 V110 M566,652 V741 M574,652 V741 M300,249 H383 M300,257 H383"/>
<path class="w" d="M519,372 H721 M421,13 V248 M389,253 H601"/>
<path class="st" d="M570,368 V730 M721,368 V730 M570,372 H721 M570,400 H721 M570,424 H721 M570,452 H721 M570,477 H721 M570,505 H721 M570,529 H721 M570,554 H721 M570,582 H721 M570,596 H721 M570,606 H721 M570,634 H721 M570,659 H721 M570,687 H721 M570,711 H721"/>
<path class="wo" d="M26,12 H721 V734 H26 V12"/>
<text class="rm" x="165" y="195">Bedroom</text>
<text class="rm" x="575" y="130">Bathroom</text>
<text class="rm" x="300" y="545">Bedroom</text>
<text class="cl" x="435" y="320">Hallway</text>
<text class="sm" x="357" y="80">Closet</text>
<text class="sm" x="357" y="195">Closet</text>
<text class="sm" x="648" y="655">Closet</text>
</svg>