<svg xmlns="http://www.w3.org/2000/svg" width="1148" height="774" viewBox="0 0 1148 774" preserveAspectRatio="xMidYMid meet" role="img" aria-label="Kent Island Village one-bedroom floor plan">
<defs><style>
    .fp{fill:#FFFFFF}
    .w{fill:none;stroke:#2C3E2D;stroke-width:7;stroke-linecap:butt}
    .wo{fill:none;stroke:#2C3E2D;stroke-width:10;stroke-linecap:butt}
    .d{fill:none;stroke:#7C9880;stroke-width:2.5;stroke-dasharray:5 6}
    .arc{fill:none;stroke:#5E7D63;stroke-width:3}
    .win{fill:none;stroke:#2C3E2D;stroke-width:2.5}
    .st{fill:none;stroke:#2C3E2D;stroke-width:2.5}
    .rm{fill:#22331F;font-family:'Helvetica Neue',Arial,sans-serif;font-size:25px;font-style:italic;text-anchor:middle}
    .cl{fill:#4A5C4D;font-family:'Helvetica Neue',Arial,sans-serif;font-size:18px;font-style:italic;text-anchor:middle}
    .sm{fill:#4A5C4D;font-family:'Helvetica Neue',Arial,sans-serif;font-size:14px;font-style:italic;text-anchor:middle}
  </style></defs>
<rect class="fp" x="31" y="24" width="1091" height="726"/>
<path class="w" d="M130,578 V618 M130,707 V759 M527,17 V756 M791,17 V164 M791,249 V363 M521,156 H702 M230,256 H695 M783,256 H1129 M522,356 H593 M672,356 H894 M1036,356 H1129 M24,585 H139"/>
<path class="d" d="M787,162 V253 M795,162 V253 M126,618 V707 M134,618 V707 M678,165 H805 M678,173 H805 M576,352 H684 M576,360 H684 M889,352 H1052 M889,360 H1052 M693,145 V267 M701,145 V267"/>
<path class="arc" d="M148,750 V660 M148,660 A90,90 0 0 1 238,750"/>
<path class="wo" d="M31,24 H1122 V750 H238 M148,750 H31 V24"/>
<text class="rm" x="300" y="145">Kitchen</text>
<text class="cl" x="658" y="100">HVAC</text>
<text class="cl" x="658" y="215">Closet</text>
<text class="rm" x="945" y="140">Bathroom</text>
<text class="cl" x="660" y="318">Hallway</text>
<text class="cl" x="952" y="308">Closet</text>
<text class="rm" x="840" y="560">Bedroom</text>
<text class="rm" x="300" y="470">Living Room</text>
<text class="sm" x="80" y="610">Closet</text>
</svg>